<svg xmlns="http://www.w3.org/2000/svg" xmlns:xlink="http://www.w3.org/1999/xlink" width="190" zoomAndPan="magnify" viewBox="0 0 142.5 74.999997" height="100" preserveAspectRatio="xMidYMid meet" version="1.0"><defs><clipPath id="78441f16a9"><path d="M 17.859375 65.820312 L 20.847656 65.820312 L 20.847656 66.320312 L 17.859375 66.320312 Z M 19.097656 66.320312 L 19.609375 66.320312 L 19.609375 69.832031 L 19.097656 69.832031 Z M 19.097656 66.320312 " clip-rule="nonzero"/></clipPath><clipPath id="ed335e1a27"><path d="M 22.445312 65.820312 L 25.4375 65.820312 L 25.4375 69.839844 L 22.445312 69.839844 Z M 22.445312 65.820312 " clip-rule="nonzero"/></clipPath><clipPath id="e9fef79ea5"><path d="M 24.847656 67.21875 C 24.847656 66.644531 24.5 66.320312 23.839844 66.320312 L 22.960938 66.320312 L 22.960938 68.125 L 23.839844 68.125 C 24.5 68.125 24.847656 67.792969 24.847656 67.21875 M 24.863281 69.832031 L 24.082031 68.601562 C 24.011719 68.605469 23.933594 68.613281 23.855469 68.613281 L 22.960938 68.613281 L 22.960938 69.832031 L 22.445312 69.832031 L 22.445312 65.820312 L 23.855469 65.820312 C 24.796875 65.820312 25.363281 66.347656 25.363281 67.21875 C 25.363281 67.839844 25.074219 68.285156 24.570312 68.484375 L 25.425781 69.832031 Z M 24.863281 69.832031 " clip-rule="nonzero"/></clipPath><clipPath id="5b5c6dbfcf"><path d="M 26.6875 65.820312 L 30.492188 65.820312 L 30.492188 69.835938 L 26.6875 69.835938 Z M 26.6875 65.820312 " clip-rule="nonzero"/></clipPath><clipPath id="2e27f42acb"><path d="M 29.359375 68.371094 L 28.578125 66.40625 L 27.796875 68.371094 Z M 29.539062 68.828125 L 27.617188 68.828125 L 27.21875 69.832031 L 26.6875 69.832031 L 28.324219 65.820312 L 28.835938 65.820312 L 30.476562 69.832031 L 29.933594 69.832031 Z M 29.539062 68.828125 " clip-rule="nonzero"/></clipPath><clipPath id="353836cf22"><path d="M 32.046875 65.820312 L 35.15625 65.820312 L 35.15625 69.84375 L 32.046875 69.84375 Z M 32.046875 65.820312 " clip-rule="nonzero"/></clipPath><clipPath id="7678ffcb76"><path d="M 35.15625 65.820312 L 35.15625 69.832031 L 34.734375 69.832031 L 32.566406 66.839844 L 32.566406 69.832031 L 32.046875 69.832031 L 32.046875 65.820312 L 32.472656 65.820312 L 34.640625 68.8125 L 34.640625 65.820312 Z M 35.15625 65.820312 " clip-rule="nonzero"/></clipPath><clipPath id="9b5a94b13d"><path d="M 36.933594 65.777344 L 39.730469 65.777344 L 39.730469 69.875 L 36.933594 69.875 Z M 36.933594 65.777344 " clip-rule="nonzero"/></clipPath><clipPath id="eb9852c1a2"><path d="M 36.945312 69.375 L 37.136719 68.925781 C 37.40625 69.195312 37.863281 69.390625 38.328125 69.390625 C 38.953125 69.390625 39.222656 69.121094 39.222656 68.773438 C 39.222656 67.792969 37.03125 68.410156 37.03125 66.921875 C 37.03125 66.304688 37.464844 65.777344 38.417969 65.777344 C 38.839844 65.777344 39.277344 65.902344 39.578125 66.128906 L 39.410156 66.589844 C 39.09375 66.367188 38.734375 66.261719 38.417969 66.261719 C 37.800781 66.261719 37.539062 66.546875 37.539062 66.898438 C 37.539062 67.878906 39.730469 67.265625 39.730469 68.734375 C 39.730469 69.347656 39.285156 69.875 38.328125 69.875 C 37.773438 69.875 37.234375 69.667969 36.945312 69.371094 " clip-rule="nonzero"/></clipPath><clipPath id="8049bbffe4"><path d="M 41.515625 65.820312 L 44.066406 65.820312 L 44.066406 66.320312 L 41.515625 66.320312 Z M 41.515625 66.320312 L 42.03125 66.320312 L 42.03125 67.71875 L 41.515625 67.71875 Z M 41.515625 67.71875 L 43.847656 67.71875 L 43.847656 68.210938 L 41.515625 68.210938 Z M 41.515625 68.210938 L 42.03125 68.210938 L 42.03125 69.832031 L 41.515625 69.832031 Z M 41.515625 68.210938 " clip-rule="nonzero"/></clipPath><clipPath id="d3d4623796"><path d="M 45.492188 65.777344 L 49.351562 65.777344 L 49.351562 69.890625 L 45.492188 69.890625 Z M 45.492188 65.777344 " clip-rule="nonzero"/></clipPath><clipPath id="b8f832730c"><path d="M 48.820312 67.828125 C 48.820312 66.9375 48.222656 66.285156 47.421875 66.285156 C 46.609375 66.285156 46.011719 66.9375 46.011719 67.828125 C 46.011719 68.714844 46.609375 69.367188 47.421875 69.367188 C 48.222656 69.367188 48.820312 68.714844 48.820312 67.828125 M 45.492188 67.828125 C 45.492188 66.652344 46.308594 65.777344 47.421875 65.777344 C 48.519531 65.777344 49.335938 66.644531 49.335938 67.828125 C 49.335938 69.007812 48.519531 69.878906 47.421875 69.878906 C 46.308594 69.878906 45.492188 69 45.492188 67.828125 " clip-rule="nonzero"/></clipPath><clipPath id="72b41974e2"><path d="M 51.160156 65.820312 L 54.152344 65.820312 L 54.152344 69.839844 L 51.160156 69.839844 Z M 51.160156 65.820312 " clip-rule="nonzero"/></clipPath><clipPath id="7ff8892ce3"><path d="M 53.5625 67.21875 C 53.5625 66.644531 53.214844 66.320312 52.554688 66.320312 L 51.675781 66.320312 L 51.675781 68.125 L 52.554688 68.125 C 53.21875 68.125 53.5625 67.792969 53.5625 67.21875 M 53.578125 69.832031 L 52.796875 68.601562 C 52.726562 68.605469 52.648438 68.613281 52.570312 68.613281 L 51.675781 68.613281 L 51.675781 69.832031 L 51.160156 69.832031 L 51.160156 65.820312 L 52.570312 65.820312 C 53.511719 65.820312 54.078125 66.347656 54.078125 67.21875 C 54.078125 67.839844 53.789062 68.285156 53.285156 68.484375 L 54.140625 69.832031 Z M 53.578125 69.832031 " clip-rule="nonzero"/></clipPath><clipPath id="00e2908b0c"><path d="M 55.949219 65.820312 L 59.796875 65.820312 L 59.796875 69.835938 L 55.949219 69.835938 Z M 55.949219 65.820312 " clip-rule="nonzero"/></clipPath><clipPath id="c7e0c0368a"><path d="M 59.300781 69.832031 L 59.296875 66.910156 L 57.988281 69.34375 L 57.75 69.34375 L 56.445312 66.925781 L 56.445312 69.832031 L 55.949219 69.832031 L 55.949219 65.820312 L 56.371094 65.820312 L 57.882812 68.640625 L 59.367188 65.820312 L 59.792969 65.820312 L 59.796875 69.832031 Z M 59.300781 69.832031 " clip-rule="nonzero"/></clipPath><clipPath id="e4b8a60e8c"><path d="M 18.707031 46.640625 L 37.765625 46.640625 L 37.765625 63.582031 L 18.707031 63.582031 Z M 18.707031 46.640625 " clip-rule="nonzero"/></clipPath><clipPath id="1e02ffda48"><path d="M 30.855469 56.972656 L 28.167969 50.488281 L 25.484375 56.972656 Z M 32.089844 59.949219 L 24.226562 59.949219 L 22.726562 63.582031 L 18.707031 63.582031 L 26.257812 46.640625 L 30.128906 46.640625 L 37.703125 63.582031 L 33.589844 63.582031 Z M 32.089844 59.949219 " clip-rule="nonzero"/></clipPath><clipPath id="ffea14322f"><path d="M 36.890625 46.347656 L 53.175781 46.347656 L 53.175781 63.875 L 36.890625 63.875 Z M 36.890625 46.347656 " clip-rule="nonzero"/></clipPath><clipPath id="8238911de0"><path d="M 36.953125 55.109375 C 36.953125 50.003906 40.875 46.351562 46.152344 46.351562 C 49.078125 46.351562 51.523438 47.414062 53.121094 49.351562 L 50.601562 51.675781 C 49.464844 50.367188 48.039062 49.691406 46.34375 49.691406 C 43.171875 49.691406 40.921875 51.917969 40.921875 55.109375 C 40.921875 58.304688 43.171875 60.53125 46.34375 60.53125 C 48.039062 60.53125 49.464844 59.851562 50.601562 58.523438 L 53.121094 60.84375 C 51.523438 62.804688 49.078125 63.871094 46.125 63.871094 C 40.875 63.871094 36.953125 60.214844 36.953125 55.109375 " clip-rule="nonzero"/></clipPath><clipPath id="0ac75bf3e7"><path d="M 54.011719 51.160156 L 56.886719 51.160156 L 56.886719 61.238281 L 54.011719 61.238281 Z M 54.011719 61.238281 L 63.113281 61.238281 L 63.113281 63.582031 L 54.011719 63.582031 Z M 54.011719 61.238281 " clip-rule="nonzero"/></clipPath><clipPath id="677b488218"><path d="M 61.367188 65.820312 L 65.171875 65.820312 L 65.171875 69.835938 L 61.367188 69.835938 Z M 61.367188 65.820312 " clip-rule="nonzero"/></clipPath><clipPath id="cdbb4e642b"><path d="M 64.039062 68.371094 L 63.257812 66.40625 L 62.476562 68.371094 Z M 64.21875 68.828125 L 62.296875 68.828125 L 61.898438 69.832031 L 61.367188 69.832031 L 63.003906 65.820312 L 63.515625 65.820312 L 65.160156 69.832031 L 64.617188 69.832031 Z M 64.21875 68.828125 " clip-rule="nonzero"/></clipPath><clipPath id="31388576c7"><path d="M 66.730469 65.820312 L 69.839844 65.820312 L 69.839844 69.84375 L 66.730469 69.84375 Z M 66.730469 65.820312 " clip-rule="nonzero"/></clipPath><clipPath id="9725ee77a8"><path d="M 69.839844 65.820312 L 69.839844 69.832031 L 69.414062 69.832031 L 67.246094 66.839844 L 67.246094 69.832031 L 66.730469 69.832031 L 66.730469 65.820312 L 67.152344 65.820312 L 69.324219 68.8125 L 69.324219 65.820312 Z M 69.839844 65.820312 " clip-rule="nonzero"/></clipPath><clipPath id="39f48762ee"><path d="M 71.957031 65.820312 L 75.445312 65.820312 L 75.445312 69.839844 L 71.957031 69.839844 Z M 71.957031 65.820312 " clip-rule="nonzero"/></clipPath><clipPath id="6bb6fa1a3d"><path d="M 73.449219 69.332031 C 74.34375 69.332031 74.917969 68.726562 74.917969 67.824219 C 74.917969 66.925781 74.34375 66.320312 73.449219 66.320312 L 72.472656 66.320312 L 72.472656 69.332031 Z M 71.957031 65.820312 L 73.480469 65.820312 C 74.644531 65.820312 75.433594 66.636719 75.433594 67.828125 C 75.433594 69.019531 74.644531 69.832031 73.480469 69.832031 L 71.957031 69.832031 Z M 71.957031 65.820312 " clip-rule="nonzero"/></clipPath><clipPath id="f69848a2f9"><path d="M 76.960938 65.777344 L 80.820312 65.777344 L 80.820312 69.890625 L 76.960938 69.890625 Z M 76.960938 65.777344 " clip-rule="nonzero"/></clipPath><clipPath id="219f4f309f"><path d="M 80.289062 67.828125 C 80.289062 66.9375 79.6875 66.285156 78.886719 66.285156 C 78.078125 66.285156 77.476562 66.9375 77.476562 67.828125 C 77.476562 68.714844 78.078125 69.367188 78.886719 69.367188 C 79.6875 69.367188 80.289062 68.714844 80.289062 67.828125 M 76.960938 67.828125 C 76.960938 66.652344 77.777344 65.777344 78.886719 65.777344 C 79.988281 65.777344 80.804688 66.644531 80.804688 67.828125 C 80.804688 69.007812 79.988281 69.878906 78.886719 69.878906 C 77.777344 69.878906 76.960938 69 76.960938 67.828125 " clip-rule="nonzero"/></clipPath><clipPath id="8909a3c419"><path d="M 64.941406 47.542969 L 70.371094 47.542969 L 70.371094 63.632812 L 64.941406 63.632812 Z M 64.941406 47.542969 " clip-rule="nonzero"/></clipPath><clipPath id="8302a3bd52"><path d="M 65.171875 51.160156 L 68.046875 51.160156 L 68.046875 63.582031 L 65.171875 63.582031 Z M 67.390625 47.59375 L 70.371094 47.59375 L 67.160156 50.148438 L 64.992188 50.148438 Z M 67.390625 47.59375 " clip-rule="nonzero"/></clipPath><clipPath id="34855683fc"><path d="M 71.378906 51.097656 L 85.457031 51.097656 L 85.457031 63.632812 L 71.378906 63.632812 Z M 71.378906 51.097656 " clip-rule="nonzero"/></clipPath><clipPath id="68ed2706d9"><path d="M 82.738281 63.582031 L 82.71875 56.128906 L 79.0625 62.269531 L 77.769531 62.269531 L 74.132812 56.289062 L 74.132812 63.582031 L 71.433594 63.582031 L 71.433594 51.160156 L 73.8125 51.160156 L 78.460938 58.878906 L 83.039062 51.160156 L 85.398438 51.160156 L 85.433594 63.582031 Z M 82.738281 63.582031 " clip-rule="nonzero"/></clipPath><clipPath id="2f61b59260"><path d="M 54.621094 7.230469 L 69 7.230469 L 69 29.015625 L 54.621094 29.015625 Z M 54.621094 7.230469 " clip-rule="nonzero"/></clipPath><clipPath id="963ccb66af"><path d="M 68.988281 14.910156 C 67.835938 12.820312 66.671875 10.742188 65.507812 8.660156 C 65.035156 7.816406 64.433594 6.90625 63.316406 7.5625 C 62.191406 8.21875 62.746094 9.160156 63.207031 10.011719 C 63.816406 11.125 64.398438 12.246094 65.113281 13.597656 C 63.363281 12.816406 61.917969 12.148438 60.460938 11.519531 C 59.644531 11.167969 58.828125 11.152344 58.453125 12.117188 C 58.113281 12.992188 58.691406 13.535156 59.417969 13.890625 C 60.679688 14.507812 61.964844 15.082031 63.226562 15.695312 C 64.53125 16.332031 65.886719 16.898438 67.105469 17.671875 C 67.976562 18.226562 68.746094 19.207031 68.421875 20.261719 C 68.113281 21.253906 66.964844 20.855469 66.171875 20.847656 C 62.886719 20.820312 59.605469 20.738281 56.324219 20.679688 C 55.421875 20.664062 54.695312 20.988281 54.628906 21.96875 C 54.554688 23.015625 55.304688 23.300781 56.199219 23.324219 C 57.648438 23.363281 59.097656 23.398438 61.007812 23.449219 C 59.371094 24.5625 58.046875 25.425781 56.765625 26.34375 C 56.046875 26.855469 55.394531 27.507812 56.09375 28.445312 C 56.753906 29.335938 57.558594 29.03125 58.320312 28.507812 C 60.136719 27.261719 61.988281 26.0625 63.753906 24.746094 C 64.847656 23.925781 65.921875 23.507812 67.351562 23.535156 C 67.957031 23.546875 68.503906 23.457031 68.984375 23.285156 Z M 68.988281 14.910156 " clip-rule="nonzero"/></clipPath><clipPath id="11cc028106"><path d="M 74.886719 27.378906 L 84.722656 27.378906 L 84.722656 37.332031 L 74.886719 37.332031 Z M 74.886719 27.378906 " clip-rule="nonzero"/></clipPath><clipPath id="23e50d395b"><path d="M 83.65625 30.765625 C 82.152344 29.996094 80.628906 29.273438 79.105469 28.550781 C 78.363281 28.195312 77.632812 27.859375 76.949219 27.453125 C 76.953125 28.140625 76.355469 30.25 74.929688 31.113281 C 75.863281 32.804688 76.796875 34.492188 77.738281 36.175781 C 78.390625 37.34375 79.398438 37.589844 80.070312 36.773438 C 80.5625 36.167969 80.386719 35.582031 80.074219 34.945312 C 79.457031 33.683594 78.542969 32.566406 78.082031 30.984375 C 79.707031 31.75 81.101562 32.398438 82.492188 33.066406 C 83.242188 33.425781 83.980469 33.535156 84.453125 32.699219 C 84.972656 31.78125 84.433594 31.164062 83.65625 30.765625 " clip-rule="nonzero"/></clipPath><clipPath id="bce01cd4f4"><path d="M 62.117188 27.964844 L 70.316406 27.964844 L 70.316406 38.738281 L 62.117188 38.738281 Z M 62.117188 27.964844 " clip-rule="nonzero"/></clipPath><clipPath id="5eda191c2f"><path d="M 69.898438 31.800781 C 69.515625 31.660156 68.316406 30.746094 68.042969 30.46875 C 67.515625 29.933594 67.023438 29.292969 66.75 28.589844 C 66.671875 28.382812 66.617188 28.175781 66.582031 27.964844 C 65.234375 30.195312 63.921875 32.445312 62.585938 34.683594 C 62.132812 35.4375 61.953125 36.203125 62.886719 36.742188 C 63.835938 37.289062 64.375 36.675781 64.824219 35.953125 C 65.53125 34.800781 66.21875 33.632812 66.914062 32.472656 C 67.019531 32.496094 67.125 32.523438 67.230469 32.546875 C 67.269531 32.769531 67.324219 32.988281 67.347656 33.214844 C 67.503906 34.707031 67.625 36.199219 67.816406 37.683594 C 67.90625 38.367188 68.351562 38.78125 69.085938 38.734375 C 69.816406 38.683594 70.164062 38.203125 70.242188 37.535156 C 70.296875 37.074219 70.273438 36.597656 70.238281 36.132812 C 70.132812 34.6875 70.007812 33.246094 69.894531 31.800781 " clip-rule="nonzero"/></clipPath><clipPath id="439f20cda5"><path d="M 72.660156 5.824219 L 88.472656 5.824219 L 88.472656 23.980469 L 72.660156 23.980469 Z M 72.660156 5.824219 " clip-rule="nonzero"/></clipPath><clipPath id="dcdab3e892"><path d="M 86.410156 21.234375 C 85.148438 21.210938 83.867188 21.34375 82.339844 20.96875 C 83.898438 19.878906 85.203125 18.980469 86.496094 18.058594 C 87.035156 17.675781 87.339844 17.15625 87.109375 16.480469 C 86.925781 15.941406 86.511719 15.65625 85.933594 15.632812 C 85.425781 15.613281 85.066406 15.929688 84.675781 16.191406 C 82.460938 17.6875 80.261719 19.207031 78.011719 20.648438 C 77.011719 21.289062 75.726562 21.449219 74.871094 20.65625 C 74.039062 19.886719 75.015625 19.019531 75.4375 18.292969 C 77.050781 15.542969 78.710938 12.820312 80.34375 10.082031 C 80.789062 9.335938 81.265625 8.488281 80.300781 7.855469 C 79.304688 7.207031 78.648438 7.855469 78.144531 8.707031 C 77.460938 9.863281 76.761719 11.015625 76.070312 12.171875 C 75.960938 12.132812 75.851562 12.09375 75.742188 12.054688 C 75.636719 10.5625 75.542969 9.070312 75.421875 7.582031 C 75.347656 6.667969 75.054688 5.832031 73.957031 5.894531 C 72.8125 5.960938 72.710938 6.859375 72.773438 7.761719 C 72.851562 8.945312 72.914062 10.128906 73.003906 11.3125 C 74.734375 12.453125 74.394531 15.097656 74.371094 16.886719 C 74.34375 19.078125 74.25 21.265625 74.207031 23.453125 C 74.574219 23.582031 74.976562 23.65625 75.402344 23.671875 C 79.058594 23.78125 82.714844 23.839844 86.371094 23.902344 C 87.359375 23.917969 88.398438 23.777344 88.375 22.5 C 88.355469 21.289062 87.351562 21.253906 86.410156 21.234375 " clip-rule="nonzero"/></clipPath><clipPath id="d46c9a9a8b"><path d="M 78.867188 11.332031 L 84.722656 11.332031 L 84.722656 17.070312 L 78.867188 17.070312 Z M 78.867188 11.332031 " clip-rule="nonzero"/></clipPath><clipPath id="c2673c4788"><path d="M 84.625 12.949219 C 84.46875 13.175781 84.269531 13.554688 83.984375 13.84375 C 83.066406 14.773438 82.117188 15.671875 81.179688 16.578125 C 80.585938 17.148438 79.933594 17.261719 79.320312 16.667969 C 78.714844 16.085938 78.738281 15.363281 79.28125 14.789062 C 80.304688 13.707031 81.386719 12.671875 82.492188 11.671875 C 82.941406 11.257812 83.542969 11.304688 84.070312 11.597656 C 84.523438 11.851562 84.683594 12.277344 84.625 12.949219 " clip-rule="nonzero"/></clipPath><clipPath id="23b186489b"><path d="M 71.722656 31.710938 L 75.238281 31.710938 L 75.238281 38.738281 L 71.722656 38.738281 Z M 71.722656 31.710938 " clip-rule="nonzero"/></clipPath><clipPath id="92408231d0"><path d="M 73.386719 31.828125 C 73.339844 31.820312 73.292969 31.8125 73.242188 31.8125 C 72.785156 31.789062 72.195312 31.929688 71.925781 32.328125 C 71.78125 32.539062 71.722656 32.796875 71.761719 33.046875 C 72.007812 34.707031 72.324219 36.359375 72.71875 37.988281 C 72.863281 38.574219 73.453125 38.824219 74.082031 38.714844 C 74.652344 38.613281 74.972656 38.238281 75.125 37.484375 C 74.953125 35.855469 74.691406 34.054688 74.007812 32.351562 C 73.890625 32.0625 73.679688 31.882812 73.386719 31.828125 " clip-rule="nonzero"/></clipPath><clipPath id="82b474a526"><path d="M 67.742188 5.707031 L 70.902344 5.707031 L 70.902344 12.734375 L 67.742188 12.734375 Z M 67.742188 5.707031 " clip-rule="nonzero"/></clipPath><clipPath id="5642336c5d"><path d="M 69.269531 12.652344 C 69.359375 12.429688 69.472656 12.214844 69.628906 12.019531 C 69.824219 11.773438 70.0625 11.605469 70.328125 11.488281 C 70.503906 10.078125 70.65625 8.664062 70.789062 7.25 C 70.84375 6.707031 70.628906 6.242188 70.074219 5.894531 C 69.320312 5.53125 68.574219 5.679688 68.347656 6.578125 C 67.957031 8.160156 67.800781 9.800781 67.800781 11.433594 C 67.800781 12.195312 68.339844 12.621094 69.085938 12.65625 C 69.148438 12.660156 69.210938 12.65625 69.269531 12.652344 " clip-rule="nonzero"/></clipPath><clipPath id="4073f2de93"><path d="M 57.902344 28.546875 L 64.695312 28.546875 L 64.695312 33 L 57.902344 33 Z M 57.902344 28.546875 " clip-rule="nonzero"/></clipPath><clipPath id="850ab3cbd1"><path d="M 58.625 32.796875 C 57.777344 32.265625 57.699219 31.316406 58.511719 30.742188 C 59.890625 29.757812 61.503906 29.203125 63.085938 28.648438 C 63.667969 28.445312 64.179688 28.835938 64.453125 29.386719 C 64.710938 29.90625 64.652344 30.5 64.1875 30.792969 C 62.644531 31.769531 60.984375 32.515625 59.191406 32.921875 C 58.988281 32.96875 58.746094 32.828125 58.625 32.796875 " clip-rule="nonzero"/></clipPath><clipPath id="cc72d8b87d"><path d="M 80.859375 24.214844 L 87.066406 24.214844 L 87.066406 29.601562 L 80.859375 29.601562 Z M 80.859375 24.214844 " clip-rule="nonzero"/></clipPath><clipPath id="004e8c141f"><path d="M 83.132812 24.625 C 84.335938 25.542969 85.367188 26.347656 86.414062 27.132812 C 87.089844 27.640625 87.253906 28.230469 86.765625 28.949219 C 86.253906 29.695312 85.574219 29.644531 84.925781 29.214844 C 83.796875 28.460938 82.691406 27.675781 81.617188 26.847656 C 80.96875 26.347656 80.613281 25.636719 81.175781 24.890625 C 81.769531 24.113281 82.550781 24.257812 83.132812 24.621094 " clip-rule="nonzero"/></clipPath><clipPath id="0170d31b04"><path d="M 56.027344 15.898438 L 62.9375 15.898438 L 62.9375 19.53125 L 56.027344 19.53125 Z M 56.027344 15.898438 " clip-rule="nonzero"/></clipPath><clipPath id="799a66ee21"><path d="M 58.804688 16.121094 C 59.675781 16.355469 60.765625 16.628906 61.839844 16.953125 C 62.585938 17.179688 63.097656 17.664062 62.886719 18.515625 C 62.679688 19.335938 62.039062 19.644531 61.257812 19.472656 C 59.84375 19.152344 58.4375 18.789062 57.042969 18.382812 C 56.320312 18.171875 56 17.609375 56.140625 16.851562 C 56.296875 16.03125 56.871094 15.832031 57.613281 15.929688 C 57.9375 15.972656 58.261719 16.03125 58.804688 16.121094 " clip-rule="nonzero"/></clipPath><clipPath id="05149097d7"><path d="M 67.390625 11.683594 L 76 11.683594 L 76 31.359375 L 67.390625 31.359375 Z M 67.390625 11.683594 " clip-rule="nonzero"/></clipPath><clipPath id="7af928961c"><path d="M 71.171875 25.019531 C 71.15625 25.03125 71.15625 25.035156 71.152344 25.035156 C 71.128906 25.039062 71.101562 25.046875 71.074219 25.050781 C 70.726562 25.125 70.40625 25.25 70.113281 25.4375 C 69.371094 25.910156 68.96875 26.554688 68.890625 27.367188 C 68.871094 27.617188 68.894531 27.863281 68.957031 28.105469 C 69.273438 29.382812 70.664062 30.320312 72.261719 30.070312 C 72.742188 29.992188 73.175781 29.808594 73.550781 29.527344 C 74.386719 28.917969 74.789062 27.9375 74.523438 26.9375 C 74.269531 25.980469 73.441406 25.273438 72.417969 25.054688 C 72.386719 25.046875 72.359375 25.039062 72.320312 25.027344 C 72.320312 24.992188 72.320312 24.957031 72.320312 24.921875 C 72.320312 23.011719 72.320312 21.101562 72.320312 19.195312 C 72.320312 19.167969 72.320312 19.140625 72.320312 19.113281 C 72.320312 19.097656 72.316406 19.082031 72.316406 19.066406 C 72.296875 19.0625 72.28125 19.0625 72.269531 19.0625 C 71.917969 19.0625 71.566406 19.0625 71.21875 19.0625 C 71.203125 19.0625 71.191406 19.066406 71.167969 19.066406 C 71.167969 20.0625 71.167969 21.050781 71.167969 22.042969 Z M 73.535156 24.089844 C 74.53125 24.527344 75.253906 25.191406 75.671875 26.105469 C 76.035156 26.898438 76.089844 27.714844 75.84375 28.539062 C 75.339844 30.199219 73.65625 31.363281 71.722656 31.351562 C 69.777344 31.34375 68.121094 30.152344 67.644531 28.511719 C 67.476562 27.929688 67.457031 27.347656 67.59375 26.761719 C 67.730469 26.175781 68.007812 25.648438 68.421875 25.179688 C 68.835938 24.710938 69.347656 24.351562 69.953125 24.09375 C 69.957031 24.074219 69.957031 24.058594 69.960938 24.039062 C 69.960938 24.019531 69.960938 23.996094 69.960938 23.976562 C 69.960938 20.449219 69.960938 16.925781 69.960938 13.398438 C 69.960938 13.308594 69.957031 13.21875 69.96875 13.128906 C 70.027344 12.722656 70.222656 12.382812 70.5625 12.109375 C 70.839844 11.886719 71.164062 11.753906 71.535156 11.714844 C 72.550781 11.613281 73.355469 12.253906 73.503906 13.03125 C 73.523438 13.140625 73.535156 13.25 73.535156 13.363281 C 73.535156 13.828125 73.535156 14.292969 73.535156 14.761719 Z M 73.535156 24.089844 " clip-rule="nonzero"/></clipPath><clipPath id="4ccadefd51"><path d="M 84.503906 65.820312 L 88.308594 65.820312 L 88.308594 69.835938 L 84.503906 69.835938 Z M 84.503906 65.820312 " clip-rule="nonzero"/></clipPath><clipPath id="988a89c7c6"><path d="M 87.171875 68.371094 L 86.394531 66.40625 L 85.613281 68.371094 Z M 87.355469 68.828125 L 85.433594 68.828125 L 85.035156 69.832031 L 84.503906 69.832031 L 86.140625 65.820312 L 86.652344 65.820312 L 88.296875 69.832031 L 87.753906 69.832031 Z M 87.355469 68.828125 " clip-rule="nonzero"/></clipPath><clipPath id="7d3bc0c381"><path d="M 89.863281 65.820312 L 93.714844 65.820312 L 93.714844 69.835938 L 89.863281 69.835938 Z M 89.863281 65.820312 " clip-rule="nonzero"/></clipPath><clipPath id="973c36b332"><path d="M 93.21875 69.832031 L 93.214844 66.910156 L 91.90625 69.34375 L 91.667969 69.34375 L 90.359375 66.925781 L 90.359375 69.832031 L 89.863281 69.832031 L 89.863281 65.820312 L 90.289062 65.820312 L 91.796875 68.640625 L 93.285156 65.820312 L 93.707031 65.820312 L 93.714844 69.832031 Z M 93.21875 69.832031 " clip-rule="nonzero"/></clipPath><clipPath id="9bb0c5396b"><path d="M 95.832031 65.820312 L 98.953125 65.820312 L 98.953125 69.84375 L 95.832031 69.84375 Z M 95.832031 65.820312 " clip-rule="nonzero"/></clipPath><clipPath id="be303ecaae"><path d="M 98.417969 68.703125 C 98.417969 68.238281 98.109375 68.03125 97.535156 68.03125 L 96.347656 68.03125 L 96.347656 69.367188 L 97.535156 69.367188 C 98.109375 69.367188 98.417969 69.167969 98.417969 68.703125 M 96.347656 66.285156 L 96.347656 67.570312 L 97.40625 67.570312 C 97.933594 67.570312 98.234375 67.351562 98.234375 66.925781 C 98.234375 66.503906 97.933594 66.285156 97.40625 66.285156 Z M 98.941406 68.75 C 98.941406 69.4375 98.472656 69.832031 97.554688 69.832031 L 95.832031 69.832031 L 95.832031 65.820312 L 97.453125 65.820312 C 98.285156 65.820312 98.75 66.210938 98.75 66.859375 C 98.75 67.292969 98.546875 67.597656 98.265625 67.753906 C 98.671875 67.878906 98.941406 68.21875 98.941406 68.75 " clip-rule="nonzero"/></clipPath><clipPath id="10e8eda4fe"><path d="M 100.773438 65.820312 L 101.292969 65.820312 L 101.292969 69.832031 L 100.773438 69.832031 Z M 100.773438 65.820312 " clip-rule="nonzero"/></clipPath><clipPath id="43c3125d9a"><path d="M 103.410156 65.820312 L 105.960938 65.820312 L 105.960938 66.320312 L 103.410156 66.320312 Z M 103.410156 66.320312 L 103.925781 66.320312 L 103.925781 67.550781 L 103.410156 67.550781 Z M 103.410156 67.550781 L 105.738281 67.550781 L 105.738281 68.039062 L 103.410156 68.039062 Z M 103.410156 68.039062 L 103.925781 68.039062 L 103.925781 69.332031 L 103.410156 69.332031 Z M 103.410156 69.332031 L 106.03125 69.332031 L 106.03125 69.832031 L 103.410156 69.832031 Z M 103.410156 69.332031 " clip-rule="nonzero"/></clipPath><clipPath id="a8857b4856"><path d="M 107.902344 65.820312 L 111.011719 65.820312 L 111.011719 69.84375 L 107.902344 69.84375 Z M 107.902344 65.820312 " clip-rule="nonzero"/></clipPath><clipPath id="ac84cb4c58"><path d="M 111.011719 65.820312 L 111.011719 69.832031 L 110.589844 69.832031 L 108.417969 66.839844 L 108.417969 69.832031 L 107.902344 69.832031 L 107.902344 65.820312 L 108.328125 65.820312 L 110.496094 68.8125 L 110.496094 65.820312 Z M 111.011719 65.820312 " clip-rule="nonzero"/></clipPath><clipPath id="8aafd32e09"><path d="M 87.183594 51.15625 L 101.152344 51.15625 L 101.152344 63.582031 L 87.183594 63.582031 Z M 87.183594 51.15625 " clip-rule="nonzero"/></clipPath><clipPath id="80a9634416"><path d="M 96.09375 58.738281 L 94.125 53.980469 L 92.15625 58.738281 Z M 97 60.917969 L 91.234375 60.917969 L 90.132812 63.582031 L 87.1875 63.582031 L 92.722656 51.160156 L 95.5625 51.160156 L 101.117188 63.582031 L 98.101562 63.582031 Z M 97 60.917969 " clip-rule="nonzero"/></clipPath><clipPath id="8b84828e27"><path d="M 100.832031 51.160156 L 111.65625 51.160156 L 111.65625 53.503906 L 100.832031 53.503906 Z M 104.804688 53.503906 L 107.679688 53.503906 L 107.679688 63.582031 L 104.804688 63.582031 Z M 104.804688 53.503906 " clip-rule="nonzero"/></clipPath><clipPath id="57a11d086a"><path d="M 112.609375 65.820312 L 115.597656 65.820312 L 115.597656 66.320312 L 112.609375 66.320312 Z M 113.847656 66.320312 L 114.359375 66.320312 L 114.359375 69.832031 L 113.847656 69.832031 Z M 113.847656 66.320312 " clip-rule="nonzero"/></clipPath><clipPath id="6187aa37b0"><path d="M 117.195312 65.820312 L 119.746094 65.820312 L 119.746094 66.320312 L 117.195312 66.320312 Z M 117.195312 66.320312 L 117.710938 66.320312 L 117.710938 67.550781 L 117.195312 67.550781 Z M 117.195312 67.550781 L 119.523438 67.550781 L 119.523438 68.039062 L 117.195312 68.039062 Z M 117.195312 68.039062 L 117.710938 68.039062 L 117.710938 69.332031 L 117.195312 69.332031 Z M 117.195312 69.332031 L 119.820312 69.332031 L 119.820312 69.832031 L 117.195312 69.832031 Z M 117.195312 69.332031 " clip-rule="nonzero"/></clipPath><clipPath id="5fbb9ae4ab"><path d="M 113.640625 51.160156 L 123.027344 51.160156 L 123.027344 53.464844 L 113.640625 53.464844 Z M 113.640625 53.464844 L 116.5 53.464844 L 116.5 56.164062 L 113.640625 56.164062 Z M 113.640625 56.164062 L 122.265625 56.164062 L 122.265625 58.398438 L 113.640625 58.398438 Z M 113.640625 58.398438 L 116.5 58.398438 L 116.5 61.273438 L 113.640625 61.273438 Z M 113.640625 61.273438 L 123.257812 61.273438 L 123.257812 63.582031 L 113.640625 63.582031 Z M 113.640625 61.273438 " clip-rule="nonzero"/></clipPath><clipPath id="ce5832b940"><path d="M 121.359375 65.777344 L 124.152344 65.777344 L 124.152344 69.875 L 121.359375 69.875 Z M 121.359375 65.777344 " clip-rule="nonzero"/></clipPath><clipPath id="8adb643dfe"><path d="M 121.359375 69.375 L 121.550781 68.925781 C 121.820312 69.195312 122.277344 69.390625 122.742188 69.390625 C 123.367188 69.390625 123.636719 69.121094 123.636719 68.773438 C 123.636719 67.792969 121.445312 68.410156 121.445312 66.921875 C 121.445312 66.304688 121.878906 65.777344 122.832031 65.777344 C 123.253906 65.777344 123.691406 65.902344 123.992188 66.128906 L 123.824219 66.589844 C 123.507812 66.367188 123.152344 66.261719 122.832031 66.261719 C 122.21875 66.261719 121.953125 66.546875 121.953125 66.898438 C 121.953125 67.878906 124.144531 67.265625 124.144531 68.734375 C 124.144531 69.347656 123.699219 69.875 122.742188 69.875 C 122.191406 69.875 121.648438 69.667969 121.359375 69.371094 " clip-rule="nonzero"/></clipPath></defs><g clip-path="url(#78441f16a9)"><path fill="#98b9e2" d="M 17.859375 65.820312 L 20.847656 65.820312 L 20.847656 69.828125 L 17.859375 69.828125 Z M 17.859375 65.820312 " fill-opacity="1" fill-rule="nonzero"/></g><g clip-path="url(#ed335e1a27)"><g clip-path="url(#e9fef79ea5)"><path fill="#98b9e2" d="M 22.445312 65.820312 L 25.425781 65.820312 L 25.425781 69.828125 L 22.445312 69.828125 Z M 22.445312 65.820312 " fill-opacity="1" fill-rule="nonzero"/></g></g><g clip-path="url(#5b5c6dbfcf)"><g clip-path="url(#2e27f42acb)"><path fill="#98b9e2" d="M 26.6875 65.820312 L 30.476562 65.820312 L 30.476562 69.835938 L 26.6875 69.835938 Z M 26.6875 65.820312 " fill-opacity="1" fill-rule="nonzero"/></g></g><g clip-path="url(#353836cf22)"><g clip-path="url(#7678ffcb76)"><path fill="#98b9e2" d="M 32.046875 65.820312 L 35.15625 65.820312 L 35.15625 69.832031 L 32.046875 69.832031 Z M 32.046875 65.820312 " fill-opacity="1" fill-rule="nonzero"/></g></g><g clip-path="url(#9b5a94b13d)"><g clip-path="url(#eb9852c1a2)"><path fill="#98b9e2" d="M 36.945312 65.777344 L 39.730469 65.777344 L 39.730469 69.875 L 36.945312 69.875 Z M 36.945312 65.777344 " fill-opacity="1" fill-rule="nonzero"/></g></g><g clip-path="url(#8049bbffe4)"><path fill="#98b9e2" d="M 41.515625 65.820312 L 44.066406 65.820312 L 44.066406 69.828125 L 41.515625 69.828125 Z M 41.515625 65.820312 " fill-opacity="1" fill-rule="nonzero"/></g><g clip-path="url(#d3d4623796)"><g clip-path="url(#b8f832730c)"><path fill="#98b9e2" d="M 45.492188 65.777344 L 49.335938 65.777344 L 49.335938 69.875 L 45.492188 69.875 Z M 45.492188 65.777344 " fill-opacity="1" fill-rule="nonzero"/></g></g><g clip-path="url(#72b41974e2)"><g clip-path="url(#7ff8892ce3)"><path fill="#98b9e2" d="M 51.160156 65.820312 L 54.140625 65.820312 L 54.140625 69.828125 L 51.160156 69.828125 Z M 51.160156 65.820312 " fill-opacity="1" fill-rule="nonzero"/></g></g><g clip-path="url(#00e2908b0c)"><g clip-path="url(#c7e0c0368a)"><path fill="#98b9e2" d="M 55.949219 65.820312 L 59.796875 65.820312 L 59.796875 69.835938 L 55.949219 69.835938 Z M 55.949219 65.820312 " fill-opacity="1" fill-rule="nonzero"/></g></g><g clip-path="url(#e4b8a60e8c)"><g clip-path="url(#1e02ffda48)"><path fill="#98b9e2" d="M 18.121094 45.761719 L 63.691406 45.761719 L 63.691406 64.457031 L 18.121094 64.457031 Z M 18.121094 45.761719 " fill-opacity="1" fill-rule="nonzero"/></g></g><g clip-path="url(#ffea14322f)"><g clip-path="url(#8238911de0)"><path fill="#98b9e2" d="M 18.121094 45.761719 L 63.691406 45.761719 L 63.691406 64.457031 L 18.121094 64.457031 Z M 18.121094 45.761719 " fill-opacity="1" fill-rule="nonzero"/></g></g><g clip-path="url(#0ac75bf3e7)"><path fill="#98b9e2" d="M 18.121094 45.761719 L 63.691406 45.761719 L 63.691406 64.457031 L 18.121094 64.457031 Z M 18.121094 45.761719 " fill-opacity="1" fill-rule="nonzero"/></g><g clip-path="url(#677b488218)"><g clip-path="url(#cdbb4e642b)"><path fill="#98b9e2" d="M 61.367188 65.820312 L 65.160156 65.820312 L 65.160156 69.835938 L 61.367188 69.835938 Z M 61.367188 65.820312 " fill-opacity="1" fill-rule="nonzero"/></g></g><g clip-path="url(#31388576c7)"><g clip-path="url(#9725ee77a8)"><path fill="#98b9e2" d="M 66.730469 65.820312 L 69.839844 65.820312 L 69.839844 69.832031 L 66.730469 69.832031 Z M 66.730469 65.820312 " fill-opacity="1" fill-rule="nonzero"/></g></g><g clip-path="url(#39f48762ee)"><g clip-path="url(#6bb6fa1a3d)"><path fill="#98b9e2" d="M 71.957031 65.820312 L 75.433594 65.820312 L 75.433594 69.828125 L 71.957031 69.828125 Z M 71.957031 65.820312 " fill-opacity="1" fill-rule="nonzero"/></g></g><g clip-path="url(#f69848a2f9)"><g clip-path="url(#219f4f309f)"><path fill="#98b9e2" d="M 76.960938 65.777344 L 80.804688 65.777344 L 80.804688 69.875 L 76.960938 69.875 Z M 76.960938 65.777344 " fill-opacity="1" fill-rule="nonzero"/></g></g><g clip-path="url(#8909a3c419)"><g clip-path="url(#8302a3bd52)"><path fill="#98b9e2" d="M 64.40625 47.007812 L 85.992188 47.007812 L 85.992188 64.167969 L 64.40625 64.167969 Z M 64.40625 47.007812 " fill-opacity="1" fill-rule="nonzero"/></g></g><g clip-path="url(#34855683fc)"><g clip-path="url(#68ed2706d9)"><path fill="#98b9e2" d="M 64.40625 47.007812 L 85.992188 47.007812 L 85.992188 64.167969 L 64.40625 64.167969 Z M 64.40625 47.007812 " fill-opacity="1" fill-rule="nonzero"/></g></g><g clip-path="url(#2f61b59260)"><g clip-path="url(#963ccb66af)"><path fill="#98b9e2" d="M 54.035156 5.121094 L 88.941406 5.121094 L 88.941406 39.324219 L 54.035156 39.324219 Z M 54.035156 5.121094 " fill-opacity="1" fill-rule="nonzero"/></g></g><g clip-path="url(#11cc028106)"><g clip-path="url(#23e50d395b)"><path fill="#98b9e2" d="M 54.035156 5.121094 L 88.941406 5.121094 L 88.941406 39.324219 L 54.035156 39.324219 Z M 54.035156 5.121094 " fill-opacity="1" fill-rule="nonzero"/></g></g><g clip-path="url(#bce01cd4f4)"><g clip-path="url(#5eda191c2f)"><path fill="#98b9e2" d="M 54.035156 5.121094 L 88.941406 5.121094 L 88.941406 39.324219 L 54.035156 39.324219 Z M 54.035156 5.121094 " fill-opacity="1" fill-rule="nonzero"/></g></g><g clip-path="url(#439f20cda5)"><g clip-path="url(#dcdab3e892)"><path fill="#98b9e2" d="M 54.035156 5.121094 L 88.941406 5.121094 L 88.941406 39.324219 L 54.035156 39.324219 Z M 54.035156 5.121094 " fill-opacity="1" fill-rule="nonzero"/></g></g><g clip-path="url(#d46c9a9a8b)"><g clip-path="url(#c2673c4788)"><path fill="#98b9e2" d="M 54.035156 5.121094 L 88.941406 5.121094 L 88.941406 39.324219 L 54.035156 39.324219 Z M 54.035156 5.121094 " fill-opacity="1" fill-rule="nonzero"/></g></g><g clip-path="url(#23b186489b)"><g clip-path="url(#92408231d0)"><path fill="#98b9e2" d="M 54.035156 5.121094 L 88.941406 5.121094 L 88.941406 39.324219 L 54.035156 39.324219 Z M 54.035156 5.121094 " fill-opacity="1" fill-rule="nonzero"/></g></g><g clip-path="url(#82b474a526)"><g clip-path="url(#5642336c5d)"><path fill="#98b9e2" d="M 54.035156 5.121094 L 88.941406 5.121094 L 88.941406 39.324219 L 54.035156 39.324219 Z M 54.035156 5.121094 " fill-opacity="1" fill-rule="nonzero"/></g></g><g clip-path="url(#4073f2de93)"><g clip-path="url(#850ab3cbd1)"><path fill="#98b9e2" d="M 54.035156 5.121094 L 88.941406 5.121094 L 88.941406 39.324219 L 54.035156 39.324219 Z M 54.035156 5.121094 " fill-opacity="1" fill-rule="nonzero"/></g></g><g clip-path="url(#cc72d8b87d)"><g clip-path="url(#004e8c141f)"><path fill="#98b9e2" d="M 54.035156 5.121094 L 88.941406 5.121094 L 88.941406 39.324219 L 54.035156 39.324219 Z M 54.035156 5.121094 " fill-opacity="1" fill-rule="nonzero"/></g></g><g clip-path="url(#0170d31b04)"><g clip-path="url(#799a66ee21)"><path fill="#98b9e2" d="M 54.035156 5.121094 L 88.941406 5.121094 L 88.941406 39.324219 L 54.035156 39.324219 Z M 54.035156 5.121094 " fill-opacity="1" fill-rule="nonzero"/></g></g><g clip-path="url(#05149097d7)"><g clip-path="url(#7af928961c)"><path fill="#98b9e2" d="M 54.035156 5.121094 L 88.941406 5.121094 L 88.941406 39.324219 L 54.035156 39.324219 Z M 54.035156 5.121094 " fill-opacity="1" fill-rule="nonzero"/></g></g><g clip-path="url(#4ccadefd51)"><g clip-path="url(#988a89c7c6)"><path fill="#98b9e2" d="M 84.503906 65.820312 L 88.296875 65.820312 L 88.296875 69.835938 L 84.503906 69.835938 Z M 84.503906 65.820312 " fill-opacity="1" fill-rule="nonzero"/></g></g><g clip-path="url(#7d3bc0c381)"><g clip-path="url(#973c36b332)"><path fill="#98b9e2" d="M 89.863281 65.820312 L 93.714844 65.820312 L 93.714844 69.835938 L 89.863281 69.835938 Z M 89.863281 65.820312 " fill-opacity="1" fill-rule="nonzero"/></g></g><g clip-path="url(#9bb0c5396b)"><g clip-path="url(#be303ecaae)"><path fill="#98b9e2" d="M 95.832031 65.820312 L 98.941406 65.820312 L 98.941406 69.832031 L 95.832031 69.832031 Z M 95.832031 65.820312 " fill-opacity="1" fill-rule="nonzero"/></g></g><g clip-path="url(#10e8eda4fe)"><path fill="#98b9e2" d="M 100.773438 65.820312 L 101.292969 65.820312 L 101.292969 69.832031 L 100.773438 69.832031 Z M 100.773438 65.820312 " fill-opacity="1" fill-rule="nonzero"/></g><g clip-path="url(#43c3125d9a)"><path fill="#98b9e2" d="M 103.410156 65.820312 L 106.03125 65.820312 L 106.03125 69.828125 L 103.410156 69.828125 Z M 103.410156 65.820312 " fill-opacity="1" fill-rule="nonzero"/></g><g clip-path="url(#a8857b4856)"><g clip-path="url(#ac84cb4c58)"><path fill="#98b9e2" d="M 107.902344 65.820312 L 111.011719 65.820312 L 111.011719 69.832031 L 107.902344 69.832031 Z M 107.902344 65.820312 " fill-opacity="1" fill-rule="nonzero"/></g></g><g clip-path="url(#8aafd32e09)"><g clip-path="url(#80a9634416)"><path fill="#98b9e2" d="M 86.601562 50.574219 L 112.25 50.574219 L 112.25 64.167969 L 86.601562 64.167969 Z M 86.601562 50.574219 " fill-opacity="1" fill-rule="nonzero"/></g></g><g clip-path="url(#8b84828e27)"><path fill="#98b9e2" d="M 86.601562 50.574219 L 112.25 50.574219 L 112.25 64.167969 L 86.601562 64.167969 Z M 86.601562 50.574219 " fill-opacity="1" fill-rule="nonzero"/></g><g clip-path="url(#57a11d086a)"><path fill="#98b9e2" d="M 112.609375 65.820312 L 115.597656 65.820312 L 115.597656 69.828125 L 112.609375 69.828125 Z M 112.609375 65.820312 " fill-opacity="1" fill-rule="nonzero"/></g><g clip-path="url(#6187aa37b0)"><path fill="#98b9e2" d="M 117.195312 65.820312 L 119.820312 65.820312 L 119.820312 69.828125 L 117.195312 69.828125 Z M 117.195312 65.820312 " fill-opacity="1" fill-rule="nonzero"/></g><g clip-path="url(#5fbb9ae4ab)"><path fill="#98b9e2" d="M 113.640625 51.160156 L 123.257812 51.160156 L 123.257812 63.59375 L 113.640625 63.59375 Z M 113.640625 51.160156 " fill-opacity="1" fill-rule="nonzero"/></g><g clip-path="url(#ce5832b940)"><g clip-path="url(#8adb643dfe)"><path fill="#98b9e2" d="M 121.359375 65.777344 L 124.144531 65.777344 L 124.144531 69.875 L 121.359375 69.875 Z M 121.359375 65.777344 " fill-opacity="1" fill-rule="nonzero"/></g></g></svg>