<svg xmlns="http://www.w3.org/2000/svg" xmlns:xlink="http://www.w3.org/1999/xlink" width="190" zoomAndPan="magnify" viewBox="0 0 142.5 74.999997" height="100" preserveAspectRatio="xMidYMid meet" version="1.0"><defs><g/></defs><g fill="#825f43" fill-opacity="1"><g transform="translate(18.717943, 48.9186)"><g><path d="M 36.71875 -14.78125 L 36.71875 -4.296875 C 36.71875 -3.460938 36.757812 -2.796875 36.84375 -2.296875 C 36.925781 -1.796875 37.03125 -1.40625 37.15625 -1.125 C 37.289062 -0.84375 37.425781 -0.660156 37.5625 -0.578125 C 37.695312 -0.492188 37.796875 -0.453125 37.859375 -0.453125 L 37.859375 0 L 32.0625 0 L 32.0625 -0.453125 C 32.132812 -0.453125 32.234375 -0.492188 32.359375 -0.578125 C 32.492188 -0.660156 32.617188 -0.84375 32.734375 -1.125 C 32.859375 -1.40625 32.96875 -1.796875 33.0625 -2.296875 C 33.164062 -2.796875 33.21875 -3.460938 33.21875 -4.296875 L 33.21875 -14.78125 C 33.21875 -15.382812 33.179688 -16.109375 33.109375 -16.953125 C 33.046875 -17.804688 32.90625 -18.640625 32.6875 -19.453125 C 32.476562 -20.273438 32.164062 -21.015625 31.75 -21.671875 C 31.332031 -22.335938 30.773438 -22.789062 30.078125 -23.03125 C 29.367188 -23.257812 28.679688 -23.25 28.015625 -23 C 27.359375 -22.75 26.753906 -22.375 26.203125 -21.875 C 25.648438 -21.375 25.15625 -20.804688 24.71875 -20.171875 C 24.289062 -19.546875 23.941406 -18.945312 23.671875 -18.375 C 22.941406 -16.78125 22.359375 -14.828125 21.921875 -12.515625 C 21.492188 -10.203125 21.28125 -7.460938 21.28125 -4.296875 C 21.28125 -3.460938 21.320312 -2.796875 21.40625 -2.296875 C 21.488281 -1.796875 21.59375 -1.40625 21.71875 -1.125 C 21.851562 -0.84375 21.988281 -0.660156 22.125 -0.578125 C 22.257812 -0.492188 22.359375 -0.453125 22.421875 -0.453125 L 22.421875 0 L 16.640625 0 L 16.640625 -0.453125 C 16.703125 -0.453125 16.800781 -0.492188 16.9375 -0.578125 C 17.070312 -0.660156 17.195312 -0.84375 17.3125 -1.125 C 17.425781 -1.40625 17.53125 -1.796875 17.625 -2.296875 C 17.726562 -2.796875 17.78125 -3.460938 17.78125 -4.296875 L 17.78125 -14.78125 C 17.78125 -15.382812 17.742188 -16.109375 17.671875 -16.953125 C 17.609375 -17.804688 17.46875 -18.640625 17.25 -19.453125 C 17.039062 -20.273438 16.726562 -21.015625 16.3125 -21.671875 C 15.894531 -22.335938 15.335938 -22.789062 14.640625 -23.03125 C 13.941406 -23.257812 13.257812 -23.25 12.59375 -23 C 11.925781 -22.75 11.316406 -22.375 10.765625 -21.875 C 10.210938 -21.375 9.71875 -20.804688 9.28125 -20.171875 C 8.851562 -19.546875 8.507812 -18.945312 8.25 -18.375 C 7.507812 -16.78125 6.921875 -14.828125 6.484375 -12.515625 C 6.054688 -10.203125 5.84375 -7.460938 5.84375 -4.296875 C 5.84375 -3.460938 5.882812 -2.796875 5.96875 -2.296875 C 6.050781 -1.796875 6.160156 -1.40625 6.296875 -1.125 C 6.429688 -0.84375 6.5625 -0.660156 6.6875 -0.578125 C 6.820312 -0.492188 6.925781 -0.453125 7 -0.453125 L 7 0 L 1.25 0 L 1.25 -0.453125 C 1.3125 -0.453125 1.410156 -0.492188 1.546875 -0.578125 C 1.679688 -0.660156 1.804688 -0.84375 1.921875 -1.125 C 2.035156 -1.40625 2.140625 -1.796875 2.234375 -2.296875 C 2.335938 -2.796875 2.390625 -3.460938 2.390625 -4.296875 L 2.390625 -19.78125 C 2.390625 -20.582031 2.335938 -21.238281 2.234375 -21.75 C 2.140625 -22.269531 2.035156 -22.660156 1.921875 -22.921875 C 1.804688 -23.191406 1.679688 -23.375 1.546875 -23.46875 C 1.410156 -23.570312 1.3125 -23.625 1.25 -23.625 L 1.25 -24.078125 L 5.84375 -24.078125 L 5.84375 -11.140625 C 6.070312 -12.671875 6.351562 -14.050781 6.6875 -15.28125 C 7.019531 -16.519531 7.40625 -17.617188 7.84375 -18.578125 C 8.175781 -19.273438 8.554688 -19.957031 8.984375 -20.625 C 9.421875 -21.289062 9.929688 -21.898438 10.515625 -22.453125 C 11.097656 -23.003906 11.726562 -23.445312 12.40625 -23.78125 C 13.09375 -24.113281 13.851562 -24.28125 14.6875 -24.28125 C 16.050781 -24.28125 17.164062 -23.992188 18.03125 -23.421875 C 18.894531 -22.859375 19.566406 -22.125 20.046875 -21.21875 C 20.535156 -20.320312 20.863281 -19.304688 21.03125 -18.171875 C 21.195312 -17.046875 21.28125 -15.914062 21.28125 -14.78125 L 21.28125 -11.140625 C 21.476562 -12.671875 21.742188 -14.050781 22.078125 -15.28125 C 22.410156 -16.519531 22.8125 -17.617188 23.28125 -18.578125 C 23.582031 -19.273438 23.957031 -19.957031 24.40625 -20.625 C 24.851562 -21.289062 25.359375 -21.898438 25.921875 -22.453125 C 26.492188 -23.003906 27.128906 -23.445312 27.828125 -23.78125 C 28.523438 -24.113281 29.289062 -24.28125 30.125 -24.28125 C 31.488281 -24.28125 32.59375 -23.992188 33.4375 -23.421875 C 34.289062 -22.859375 34.957031 -22.125 35.4375 -21.21875 C 35.925781 -20.320312 36.257812 -19.304688 36.4375 -18.171875 C 36.625 -17.046875 36.71875 -15.914062 36.71875 -14.78125 Z M 36.71875 -14.78125 "/></g></g></g><g fill="#825f43" fill-opacity="1"><g transform="translate(56.98022, 48.9186)"><g><path d="M 1.25 -22.28125 L 5.9375 -24.078125 L 5.9375 -4.296875 C 5.9375 -3.460938 5.976562 -2.796875 6.0625 -2.296875 C 6.144531 -1.796875 6.253906 -1.40625 6.390625 -1.125 C 6.523438 -0.84375 6.660156 -0.660156 6.796875 -0.578125 C 6.929688 -0.492188 7.03125 -0.453125 7.09375 -0.453125 L 7.09375 0 L 1.296875 0 L 1.296875 -0.453125 C 1.398438 -0.453125 1.515625 -0.492188 1.640625 -0.578125 C 1.773438 -0.660156 1.898438 -0.84375 2.015625 -1.125 C 2.140625 -1.40625 2.25 -1.796875 2.34375 -2.296875 C 2.445312 -2.796875 2.5 -3.460938 2.5 -4.296875 L 2.5 -19.734375 C 2.363281 -20.628906 2.175781 -21.207031 1.9375 -21.46875 C 1.707031 -21.738281 1.53125 -21.875 1.40625 -21.875 Z M 3.84375 -28.125 C 3.175781 -28.125 2.617188 -28.347656 2.171875 -28.796875 C 1.722656 -29.242188 1.5 -29.800781 1.5 -30.46875 C 1.5 -31.132812 1.722656 -31.691406 2.171875 -32.140625 C 2.617188 -32.585938 3.175781 -32.8125 3.84375 -32.8125 C 4.507812 -32.8125 5.066406 -32.585938 5.515625 -32.140625 C 5.960938 -31.691406 6.1875 -31.132812 6.1875 -30.46875 C 6.1875 -29.800781 5.960938 -29.242188 5.515625 -28.796875 C 5.066406 -28.347656 4.507812 -28.125 3.84375 -28.125 Z M 3.84375 -28.125 "/></g></g></g><g fill="#825f43" fill-opacity="1"><g transform="translate(64.472647, 48.9186)"><g><path d="M 1.25 -24.078125 C 1.445312 -24.078125 1.8125 -24.125 2.34375 -24.21875 C 2.875 -24.320312 3.414062 -24.597656 3.96875 -25.046875 C 4.519531 -25.492188 5.003906 -26.175781 5.421875 -27.09375 C 5.835938 -28.007812 6.046875 -29.285156 6.046875 -30.921875 L 9.546875 -30.921875 C 9.546875 -28.921875 9.144531 -27.378906 8.34375 -26.296875 C 7.539062 -25.210938 6.34375 -24.472656 4.75 -24.078125 L 12.234375 -24.078125 L 12.234375 -23.734375 L 7.890625 -23.734375 L 7.890625 -9.296875 C 7.890625 -8.691406 7.921875 -7.960938 7.984375 -7.109375 C 8.054688 -6.265625 8.195312 -5.429688 8.40625 -4.609375 C 8.625 -3.796875 8.941406 -3.054688 9.359375 -2.390625 C 9.773438 -1.734375 10.335938 -1.285156 11.046875 -1.046875 C 11.742188 -0.816406 12.425781 -0.816406 13.09375 -1.046875 C 13.757812 -1.285156 14.363281 -1.648438 14.90625 -2.140625 C 15.457031 -2.640625 15.945312 -3.207031 16.375 -3.84375 C 16.8125 -4.476562 17.164062 -5.078125 17.4375 -5.640625 C 17.632812 -6.109375 17.820312 -6.597656 18 -7.109375 C 18.1875 -7.628906 18.363281 -8.171875 18.53125 -8.734375 L 18.984375 -8.734375 C 18.816406 -8.140625 18.640625 -7.566406 18.453125 -7.015625 C 18.273438 -6.460938 18.066406 -5.957031 17.828125 -5.5 C 17.535156 -4.800781 17.160156 -4.117188 16.703125 -3.453125 C 16.253906 -2.785156 15.75 -2.175781 15.1875 -1.625 C 14.625 -1.070312 13.988281 -0.628906 13.28125 -0.296875 C 12.582031 0.0351562 11.816406 0.203125 10.984375 0.203125 C 9.617188 0.203125 8.507812 -0.078125 7.65625 -0.640625 C 6.8125 -1.210938 6.148438 -1.945312 5.671875 -2.84375 C 5.191406 -3.75 4.859375 -4.765625 4.671875 -5.890625 C 4.484375 -7.023438 4.390625 -8.160156 4.390625 -9.296875 L 4.390625 -20.6875 C 4.390625 -21.507812 4.109375 -22.222656 3.546875 -22.828125 C 2.984375 -23.429688 2.21875 -23.734375 1.25 -23.734375 Z M 1.25 -24.078125 "/></g></g></g><g fill="#825f43" fill-opacity="1"><g transform="translate(83.853428, 48.9186)"><g><path d="M 24.078125 0 L 19.484375 0 L 19.484375 -14.390625 C 19.484375 -15.285156 19.441406 -16.28125 19.359375 -17.375 C 19.273438 -18.476562 19.066406 -19.507812 18.734375 -20.46875 C 18.398438 -21.4375 17.890625 -22.242188 17.203125 -22.890625 C 16.523438 -23.546875 15.585938 -23.875 14.390625 -23.875 C 13.191406 -23.875 12.148438 -23.695312 11.265625 -23.34375 C 10.378906 -23 9.671875 -22.59375 9.140625 -22.125 C 8.609375 -21.664062 8.257812 -21.203125 8.09375 -20.734375 C 7.925781 -20.265625 7.957031 -19.894531 8.1875 -19.625 C 8.320312 -19.457031 8.546875 -19.332031 8.859375 -19.25 C 9.179688 -19.164062 9.539062 -19.09375 9.9375 -19.03125 C 10.34375 -18.96875 10.769531 -18.898438 11.21875 -18.828125 C 11.664062 -18.765625 12.085938 -18.648438 12.484375 -18.484375 C 13.585938 -18.046875 14.460938 -17.351562 15.109375 -16.40625 C 15.753906 -15.457031 16.210938 -14.398438 16.484375 -13.234375 C 16.753906 -12.066406 16.851562 -10.867188 16.78125 -9.640625 C 16.71875 -8.410156 16.484375 -7.328125 16.078125 -6.390625 C 15.316406 -4.460938 14.1875 -2.863281 12.6875 -1.59375 C 11.1875 -0.332031 9.554688 0.265625 7.796875 0.203125 C 6.128906 0.128906 4.78125 -0.328125 3.75 -1.171875 C 2.71875 -2.023438 2.007812 -3.070312 1.625 -4.3125 C 1.238281 -5.5625 1.195312 -6.910156 1.5 -8.359375 C 1.800781 -9.816406 2.441406 -11.164062 3.421875 -12.40625 C 4.398438 -13.65625 5.75 -14.710938 7.46875 -15.578125 C 9.1875 -16.453125 11.273438 -16.9375 13.734375 -17.03125 C 13.804688 -17.0625 13.925781 -17.078125 14.09375 -17.078125 C 13.59375 -17.515625 13.007812 -17.867188 12.34375 -18.140625 C 11.738281 -18.367188 11.085938 -18.515625 10.390625 -18.578125 C 9.691406 -18.648438 9.035156 -18.664062 8.421875 -18.625 C 7.804688 -18.59375 7.253906 -18.539062 6.765625 -18.46875 C 6.285156 -18.40625 5.976562 -18.359375 5.84375 -18.328125 C 5.738281 -18.828125 5.878906 -19.414062 6.265625 -20.09375 C 6.648438 -20.78125 7.21875 -21.429688 7.96875 -22.046875 C 8.71875 -22.671875 9.632812 -23.191406 10.71875 -23.609375 C 11.800781 -24.023438 13.023438 -24.234375 14.390625 -24.234375 C 15.984375 -24.234375 17.328125 -23.984375 18.421875 -23.484375 C 19.523438 -22.984375 20.410156 -22.296875 21.078125 -21.421875 C 21.742188 -20.554688 22.21875 -19.515625 22.5 -18.296875 C 22.78125 -17.085938 22.921875 -15.785156 22.921875 -14.390625 L 22.921875 -4.296875 C 22.921875 -3.460938 22.960938 -2.796875 23.046875 -2.296875 C 23.128906 -1.796875 23.238281 -1.40625 23.375 -1.125 C 23.507812 -0.84375 23.644531 -0.660156 23.78125 -0.578125 C 23.914062 -0.492188 24.015625 -0.453125 24.078125 -0.453125 Z M 14.4375 -16.6875 C 13.101562 -16.6875 11.84375 -16.519531 10.65625 -16.1875 C 9.476562 -15.851562 8.445312 -15.335938 7.5625 -14.640625 C 6.6875 -13.941406 5.988281 -13.054688 5.46875 -11.984375 C 4.957031 -10.921875 4.703125 -9.675781 4.703125 -8.25 C 4.703125 -7.539062 4.773438 -6.835938 4.921875 -6.140625 C 5.066406 -5.441406 5.3125 -4.789062 5.65625 -4.1875 C 6.007812 -3.59375 6.453125 -3.078125 6.984375 -2.640625 C 7.523438 -2.210938 8.175781 -1.929688 8.9375 -1.796875 C 9.738281 -1.628906 10.488281 -1.660156 11.1875 -1.890625 C 11.882812 -2.128906 12.53125 -2.472656 13.125 -2.921875 C 13.726562 -3.367188 14.253906 -3.910156 14.703125 -4.546875 C 15.160156 -5.179688 15.519531 -5.832031 15.78125 -6.5 C 16.082031 -7.289062 16.289062 -8.144531 16.40625 -9.0625 C 16.519531 -9.976562 16.523438 -10.894531 16.421875 -11.8125 C 16.328125 -12.726562 16.113281 -13.601562 15.78125 -14.4375 C 15.445312 -15.269531 15 -16.019531 14.4375 -16.6875 Z M 18.09375 -34.875 C 17.851562 -34.132812 17.414062 -33.445312 16.78125 -32.8125 C 16.15625 -32.1875 15.472656 -31.875 14.734375 -31.875 C 14.035156 -31.875 13.34375 -32.0625 12.65625 -32.4375 C 11.976562 -32.820312 11.332031 -33.128906 10.71875 -33.359375 C 10.101562 -33.597656 9.53125 -33.640625 9 -33.484375 C 8.46875 -33.335938 7.984375 -32.71875 7.546875 -31.625 L 7.25 -31.71875 C 7.382812 -31.988281 7.515625 -32.269531 7.640625 -32.5625 C 7.773438 -32.800781 7.925781 -33.046875 8.09375 -33.296875 C 8.257812 -33.546875 8.460938 -33.753906 8.703125 -33.921875 C 8.898438 -34.054688 9.15625 -34.207031 9.46875 -34.375 C 9.789062 -34.539062 10.175781 -34.644531 10.625 -34.6875 C 11.070312 -34.738281 11.578125 -34.710938 12.140625 -34.609375 C 12.710938 -34.515625 13.347656 -34.269531 14.046875 -33.875 C 14.640625 -33.539062 15.132812 -33.332031 15.53125 -33.25 C 15.9375 -33.164062 16.269531 -33.179688 16.53125 -33.296875 C 16.800781 -33.410156 17.035156 -33.617188 17.234375 -33.921875 C 17.429688 -34.222656 17.632812 -34.570312 17.84375 -34.96875 Z M 18.09375 -34.875 "/></g></g></g><g fill="#825f43" fill-opacity="1"><g transform="translate(108.329205, 48.9186)"><g><path d="M 3.75 -34.96875 C 4.382812 -34.96875 4.90625 -34.75 5.3125 -34.3125 C 5.726562 -33.882812 5.9375 -33.367188 5.9375 -32.765625 C 5.9375 -31.703125 5.644531 -30.800781 5.0625 -30.0625 C 4.488281 -29.332031 3.703125 -28.96875 2.703125 -28.96875 L 2.703125 -29.421875 C 3.160156 -29.421875 3.488281 -29.476562 3.6875 -29.59375 C 3.894531 -29.707031 4.03125 -29.847656 4.09375 -30.015625 C 4.195312 -30.179688 4.234375 -30.398438 4.203125 -30.671875 C 4.128906 -30.640625 3.976562 -30.625 3.75 -30.625 C 3.144531 -30.625 2.617188 -30.832031 2.171875 -31.25 C 1.722656 -31.664062 1.5 -32.171875 1.5 -32.765625 C 1.5 -33.367188 1.722656 -33.882812 2.171875 -34.3125 C 2.617188 -34.75 3.144531 -34.96875 3.75 -34.96875 Z M 3.75 -34.96875 "/></g></g></g><g fill="#825f43" fill-opacity="1"><g transform="translate(114.922515, 48.9186)"><g><path d="M 1.25 -22.28125 L 5.9375 -24.078125 L 5.9375 -4.296875 C 5.9375 -3.460938 5.976562 -2.796875 6.0625 -2.296875 C 6.144531 -1.796875 6.253906 -1.40625 6.390625 -1.125 C 6.523438 -0.84375 6.660156 -0.660156 6.796875 -0.578125 C 6.929688 -0.492188 7.03125 -0.453125 7.09375 -0.453125 L 7.09375 0 L 1.296875 0 L 1.296875 -0.453125 C 1.398438 -0.453125 1.515625 -0.492188 1.640625 -0.578125 C 1.773438 -0.660156 1.898438 -0.84375 2.015625 -1.125 C 2.140625 -1.40625 2.25 -1.796875 2.34375 -2.296875 C 2.445312 -2.796875 2.5 -3.460938 2.5 -4.296875 L 2.5 -19.734375 C 2.363281 -20.628906 2.175781 -21.207031 1.9375 -21.46875 C 1.707031 -21.738281 1.53125 -21.875 1.40625 -21.875 Z M 3.84375 -28.125 C 3.175781 -28.125 2.617188 -28.347656 2.171875 -28.796875 C 1.722656 -29.242188 1.5 -29.800781 1.5 -30.46875 C 1.5 -31.132812 1.722656 -31.691406 2.171875 -32.140625 C 2.617188 -32.585938 3.175781 -32.8125 3.84375 -32.8125 C 4.507812 -32.8125 5.066406 -32.585938 5.515625 -32.140625 C 5.960938 -31.691406 6.1875 -31.132812 6.1875 -30.46875 C 6.1875 -29.800781 5.960938 -29.242188 5.515625 -28.796875 C 5.066406 -28.347656 4.507812 -28.125 3.84375 -28.125 Z M 3.84375 -28.125 "/></g></g></g><g fill="#544541" fill-opacity="1"><g transform="translate(33.723288, 61.657266)"><g><path d="M 0.328125 0 L 2.09375 0 C 3.890625 0 4.171875 -0.984375 4.171875 -1.8125 C 4.171875 -2.375 3.9375 -3.03125 3.203125 -3.359375 C 3.625 -3.6875 3.8125 -4.203125 3.8125 -4.6875 C 3.8125 -5.484375 3.484375 -6.46875 2.09375 -6.46875 L 0.328125 -6.46875 Z M 1.0625 -3.609375 L 1.0625 -5.796875 L 2.09375 -5.796875 C 3 -5.796875 3.078125 -5.125 3.078125 -4.6875 C 3.078125 -4.234375 2.921875 -3.609375 2 -3.609375 Z M 1.0625 -0.671875 L 1.0625 -2.953125 L 2 -2.953125 C 3.1875 -2.953125 3.4375 -2.40625 3.4375 -1.8125 C 3.4375 -1.203125 3.265625 -0.703125 2.09375 -0.671875 Z M 1.0625 -0.671875 "/></g></g></g><g fill="#544541" fill-opacity="1"><g transform="translate(40.0891, 61.657266)"><g><path d="M 0 0 L 0.734375 0 L 1.078125 -1.25 L 3.421875 -1.25 L 3.765625 0 L 4.5 0 L 2.65625 -6.46875 L 1.84375 -6.46875 Z M 1.25 -1.921875 L 2.25 -5.390625 L 3.25 -1.921875 Z M 1.25 -1.921875 "/></g></g></g><g fill="#544541" fill-opacity="1"><g transform="translate(46.648912, 61.657266)"><g><path d="M 0.328125 0 L 2.09375 0 C 3.890625 0 4.171875 -0.984375 4.171875 -1.8125 C 4.171875 -2.375 3.9375 -3.03125 3.203125 -3.359375 C 3.625 -3.6875 3.8125 -4.203125 3.8125 -4.6875 C 3.8125 -5.484375 3.484375 -6.46875 2.09375 -6.46875 L 0.328125 -6.46875 Z M 1.0625 -3.609375 L 1.0625 -5.796875 L 2.09375 -5.796875 C 3 -5.796875 3.078125 -5.125 3.078125 -4.6875 C 3.078125 -4.234375 2.921875 -3.609375 2 -3.609375 Z M 1.0625 -0.671875 L 1.0625 -2.953125 L 2 -2.953125 C 3.1875 -2.953125 3.4375 -2.40625 3.4375 -1.8125 C 3.4375 -1.203125 3.265625 -0.703125 2.09375 -0.671875 Z M 1.0625 -0.671875 "/></g></g></g><g fill="#544541" fill-opacity="1"><g transform="translate(53.014723, 61.657266)"><g><path d="M 1.625 0 L 2.359375 0 L 2.359375 -2.109375 L 4.078125 -6.46875 L 3.328125 -6.46875 L 2 -3.09375 L 0.671875 -6.46875 L -0.09375 -6.46875 L 1.625 -2.109375 Z M 1.625 0 "/></g></g></g><g fill="#544541" fill-opacity="1"><g transform="translate(59.121877, 61.657266)"><g/></g></g><g fill="#544541" fill-opacity="1"><g transform="translate(62.522326, 61.657266)"><g><path d="M 0.328125 0 L 2.09375 0 C 3.890625 0 4.171875 -0.984375 4.171875 -1.8125 C 4.171875 -2.375 3.9375 -3.03125 3.203125 -3.359375 C 3.625 -3.6875 3.8125 -4.203125 3.8125 -4.6875 C 3.8125 -5.484375 3.484375 -6.46875 2.09375 -6.46875 L 0.328125 -6.46875 Z M 1.0625 -3.609375 L 1.0625 -5.796875 L 2.09375 -5.796875 C 3 -5.796875 3.078125 -5.125 3.078125 -4.6875 C 3.078125 -4.234375 2.921875 -3.609375 2 -3.609375 Z M 1.0625 -0.671875 L 1.0625 -2.953125 L 2 -2.953125 C 3.1875 -2.953125 3.4375 -2.40625 3.4375 -1.8125 C 3.4375 -1.203125 3.265625 -0.703125 2.09375 -0.671875 Z M 1.0625 -0.671875 "/></g></g></g><g fill="#544541" fill-opacity="1"><g transform="translate(68.888136, 61.657266)"><g><path d="M 2.40625 0.046875 C 4.25 0.046875 4.5 -1.4375 4.5 -3.234375 C 4.5 -5.03125 4.25 -6.515625 2.40625 -6.515625 C 0.578125 -6.515625 0.34375 -5.03125 0.34375 -3.234375 C 0.34375 -1.4375 0.578125 0.046875 2.40625 0.046875 Z M 2.40625 -0.625 C 1.203125 -0.625 1.078125 -1.65625 1.078125 -3.234375 C 1.078125 -4.8125 1.203125 -5.84375 2.40625 -5.84375 C 3.625 -5.84375 3.765625 -4.8125 3.765625 -3.234375 C 3.765625 -1.65625 3.625 -0.625 2.40625 -0.625 Z M 2.40625 -0.625 "/></g></g></g><g fill="#544541" fill-opacity="1"><g transform="translate(75.623463, 61.657266)"><g><path d="M 2.234375 0.046875 C 3.390625 0.046875 4.140625 -0.5 4.140625 -1.828125 L 4.140625 -6.46875 L 3.40625 -6.46875 L 3.40625 -1.828125 C 3.40625 -1 3.0625 -0.625 2.234375 -0.625 C 1.40625 -0.625 1.078125 -1 1.078125 -1.828125 L 1.078125 -6.46875 L 0.34375 -6.46875 L 0.34375 -1.828125 C 0.34375 -0.5 1.0625 0.046875 2.234375 0.046875 Z M 2.234375 0.046875 "/></g></g></g><g fill="#544541" fill-opacity="1"><g transform="translate(82.035464, 61.657266)"><g><path d="M 1.3125 0 L 2.046875 0 L 2.046875 -5.796875 L 3.390625 -5.796875 L 3.390625 -6.46875 L -0.03125 -6.46875 L -0.03125 -5.796875 L 1.3125 -5.796875 Z M 1.3125 0 "/></g></g></g><g fill="#544541" fill-opacity="1"><g transform="translate(87.486726, 61.657266)"><g><path d="M 0.328125 0 L 1.078125 0 L 1.078125 -6.46875 L 0.328125 -6.46875 Z M 0.328125 0 "/></g></g></g><g fill="#544541" fill-opacity="1"><g transform="translate(90.73013, 61.657266)"><g><path d="M 4.796875 0.71875 L 4.796875 0.046875 C 4.25 0.046875 4.03125 -0.28125 3.859375 -0.578125 C 4.34375 -1.171875 4.453125 -2.140625 4.453125 -3.234375 C 4.453125 -5.03125 4.203125 -6.515625 2.359375 -6.515625 C 0.53125 -6.515625 0.3125 -5.03125 0.3125 -3.234375 C 0.3125 -1.4375 0.53125 0.046875 2.359375 0.046875 C 2.75 0.046875 3.0625 -0.015625 3.3125 -0.140625 C 3.515625 0.265625 3.859375 0.71875 4.796875 0.71875 Z M 2.359375 -0.625 C 1.15625 -0.625 1.03125 -1.65625 1.03125 -3.234375 C 1.03125 -4.8125 1.15625 -5.84375 2.359375 -5.84375 C 3.578125 -5.84375 3.71875 -4.8125 3.71875 -3.234375 C 3.71875 -1.6875 3.578125 -0.625 2.359375 -0.625 Z M 2.359375 -0.625 "/></g></g></g><g fill="#544541" fill-opacity="1"><g transform="translate(97.622501, 61.657266)"><g><path d="M 2.234375 0.046875 C 3.390625 0.046875 4.140625 -0.5 4.140625 -1.828125 L 4.140625 -6.46875 L 3.40625 -6.46875 L 3.40625 -1.828125 C 3.40625 -1 3.0625 -0.625 2.234375 -0.625 C 1.40625 -0.625 1.078125 -1 1.078125 -1.828125 L 1.078125 -6.46875 L 0.34375 -6.46875 L 0.34375 -1.828125 C 0.34375 -0.5 1.0625 0.046875 2.234375 0.046875 Z M 2.234375 0.046875 "/></g></g></g><g fill="#544541" fill-opacity="1"><g transform="translate(104.034499, 61.657266)"><g><path d="M 0.34375 0 L 3.359375 0 L 3.359375 -0.671875 L 1.078125 -0.671875 L 1.078125 -2.765625 L 2.921875 -2.765625 L 2.921875 -3.4375 L 1.078125 -3.4375 L 1.078125 -5.796875 L 3.28125 -5.796875 L 3.28125 -6.46875 L 0.34375 -6.46875 Z M 0.34375 0 "/></g></g></g></svg>