<svg xmlns="http://www.w3.org/2000/svg" xmlns:xlink="http://www.w3.org/1999/xlink" width="60" zoomAndPan="magnify" viewBox="0 0 45 44.999999" height="60" preserveAspectRatio="xMidYMid meet" version="1.0"><defs><clipPath id="7f38c0a269"><path d="M 3.691406 9 L 29.941406 9 L 29.941406 36 L 3.691406 36 Z M 3.691406 9 " clip-rule="nonzero"/></clipPath><clipPath id="26b76ac0eb"><path d="M 16.769531 9 L 41.519531 9 L 41.519531 36 L 16.769531 36 Z M 16.769531 9 " clip-rule="nonzero"/></clipPath></defs><rect x="-4.5" width="54" fill="#ffffff" y="-4.5" height="53.999999" fill-opacity="1"/><rect x="-4.5" width="54" fill="#92bb57" y="-4.5" height="53.999999" fill-opacity="1"/><g clip-path="url(#7f38c0a269)"><path fill="#fcfffe" d="M 10.332031 17.777344 L 3.855469 35.128906 C 3.695312 35.550781 4.007812 36 4.460938 36 L 9.972656 36 C 10.246094 36 10.488281 35.828125 10.582031 35.570312 L 12.121094 31.210938 L 13.980469 25.632812 C 14.027344 25.5 14.027344 25.359375 13.984375 25.226562 L 11.554688 17.804688 C 11.363281 17.222656 10.546875 17.207031 10.332031 17.777344 Z M 19.484375 9 L 14.566406 9 C 14.121094 9 13.808594 9.4375 13.957031 9.859375 L 16.71875 17.820312 L 16.722656 17.808594 L 21.25 31.210938 L 22.824219 35.574219 C 22.914062 35.828125 23.15625 36 23.429688 36 L 29.078125 36 C 29.53125 36 29.84375 35.550781 29.683594 35.128906 L 20.089844 9.421875 C 19.996094 9.167969 19.753906 9 19.484375 9 " fill-opacity="1" fill-rule="nonzero"/></g><g clip-path="url(#26b76ac0eb)"><path fill="#fcfffe" d="M 41.183594 9.300781 C 41.070312 9.140625 40.886719 9.042969 40.6875 9.042969 L 36.152344 9.042969 C 35.890625 9.042969 35.660156 9.207031 35.574219 9.453125 L 29.074219 28.003906 L 29.054688 28.003906 L 22.558594 9.453125 C 22.472656 9.207031 22.238281 9.042969 21.980469 9.042969 L 17.445312 9.042969 C 17.246094 9.042969 17.058594 9.140625 16.945312 9.300781 C 16.832031 9.464844 16.800781 9.671875 16.867188 9.859375 L 25.863281 35.546875 C 25.949219 35.792969 26.183594 35.957031 26.441406 35.957031 L 31.6875 35.957031 C 31.949219 35.957031 32.179688 35.792969 32.265625 35.546875 L 41.265625 9.859375 C 41.328125 9.671875 41.300781 9.464844 41.183594 9.300781 Z M 41.183594 9.300781 " fill-opacity="1" fill-rule="nonzero"/></g></svg>