<svg xmlns="http://www.w3.org/2000/svg" xmlns:xlink="http://www.w3.org/1999/xlink" width="60" zoomAndPan="magnify" viewBox="0 0 45 44.999999" height="60" preserveAspectRatio="xMidYMid meet" version="1.0"><rect x="-4.5" width="54" fill="#ffffff" y="-4.5" height="53.999999" fill-opacity="1"/><rect x="-4.5" width="54" fill="#4964d5" y="-4.5" height="53.999999" fill-opacity="1"/><path fill="#4964d5" d="M 22.492188 46.871094 C 35.78125 46.871094 46.617188 35.925781 46.617188 22.503906 C 46.617188 9.082031 35.78125 -1.863281 22.492188 -1.863281 C 9.203125 -1.863281 -1.632812 9.082031 -1.632812 22.503906 C -1.632812 35.921875 9.203125 46.871094 22.492188 46.871094 Z M 22.492188 46.871094 " fill-opacity="1" fill-rule="evenodd"/><path fill="#ffffff" d="M 22.335938 7.925781 C 30.820312 7.925781 37.710938 13.976562 37.710938 21.445312 C 37.710938 28.914062 30.820312 34.96875 22.335938 34.96875 C 21.066406 34.96875 19.816406 34.832031 18.578125 34.558594 C 18.457031 34.535156 16.726562 34.035156 16.617188 34.03125 L 10.210938 36.039062 L 11.335938 30.910156 C 11.359375 30.800781 9.839844 29.328125 9.765625 29.242188 C 8.867188 28.140625 8.175781 26.921875 7.695312 25.582031 C 7.210938 24.246094 6.96875 22.867188 6.960938 21.445312 C 6.960938 13.976562 13.84375 7.925781 22.335938 7.925781 Z M 22.335938 7.925781 " fill-opacity="1" fill-rule="evenodd"/></svg>