<svg xmlns="http://www.w3.org/2000/svg" xmlns:xlink="http://www.w3.org/1999/xlink" width="60" zoomAndPan="magnify" viewBox="0 0 45 44.999999" height="60" preserveAspectRatio="xMidYMid meet" version="1.0"><defs><clipPath id="1851a65a6e"><path d="M 6 3.832031 L 38.910156 3.832031 L 38.910156 41.332031 L 6 41.332031 Z M 6 3.832031 " clip-rule="nonzero"/></clipPath></defs><rect x="-4.5" width="54" fill="#ffffff" y="-4.5" height="53.999999" fill-opacity="1"/><rect x="-4.5" width="54" fill="#72a6e2" y="-4.5" height="53.999999" fill-opacity="1"/><g clip-path="url(#1851a65a6e)"><path fill="#ffffff" d="M 38.015625 29.652344 L 36.851562 28.980469 C 36.738281 28.914062 36.765625 28.738281 36.894531 28.710938 L 37.476562 28.589844 C 37.976562 28.488281 38.378906 28.121094 38.535156 27.597656 C 38.554688 27.539062 38.566406 27.472656 38.574219 27.410156 C 38.679688 26.410156 37.804688 25.6875 36.910156 25.871094 L 32.988281 26.6875 C 32.941406 26.699219 32.886719 26.691406 32.84375 26.664062 C 32.679688 26.570312 32.71875 26.320312 32.90625 26.28125 L 34.632812 25.921875 C 34.996094 25.847656 35.308594 25.632812 35.511719 25.324219 C 35.714844 25.015625 35.785156 24.644531 35.710938 24.28125 C 35.550781 23.53125 34.816406 23.046875 34.066406 23.203125 L 30.789062 23.886719 C 30.628906 23.917969 30.464844 23.929688 30.304688 23.90625 C 29.828125 23.84375 29.488281 23.585938 29.292969 23.246094 C 29.171875 23.039062 29.109375 22.800781 29.105469 22.5625 C 29.09375 22.039062 29.371094 21.503906 29.96875 21.261719 L 30.121094 21.199219 C 30.375 21.097656 30.652344 21.070312 30.921875 21.128906 L 34.066406 21.78125 C 34.816406 21.9375 35.554688 21.457031 35.707031 20.707031 C 35.863281 19.957031 35.382812 19.21875 34.632812 19.0625 L 32.90625 18.703125 C 32.71875 18.664062 32.679688 18.417969 32.84375 18.320312 C 32.886719 18.296875 32.941406 18.289062 32.988281 18.296875 L 36.910156 19.113281 C 37.453125 19.226562 37.992188 19.015625 38.316406 18.566406 C 38.640625 18.117188 38.671875 17.539062 38.394531 17.058594 C 38.125 16.597656 37.90625 16.484375 36.90625 16.269531 C 36.777344 16.242188 36.746094 16.066406 36.863281 16 L 38.015625 15.335938 C 38.785156 14.890625 39.074219 14.0625 38.628906 13.289062 L 38.613281 13.25 C 38.332031 12.675781 37.773438 12.417969 37.230469 12.417969 C 36.964844 12.417969 36.699219 12.484375 36.449219 12.628906 L 35.289062 13.300781 C 35.171875 13.367188 35.035156 13.253906 35.078125 13.128906 L 35.261719 12.566406 C 35.421875 12.078125 35.308594 11.546875 34.933594 11.152344 C 34.890625 11.105469 34.839844 11.0625 34.789062 11.023438 C 33.976562 10.433594 32.914062 10.828125 32.625 11.695312 L 31.371094 15.5 C 31.355469 15.546875 31.324219 15.589844 31.277344 15.613281 C 31.113281 15.710938 30.917969 15.550781 30.976562 15.367188 L 31.53125 13.691406 C 31.644531 13.339844 31.617188 12.964844 31.449219 12.632812 C 31.285156 12.300781 31 12.054688 30.644531 11.9375 C 29.917969 11.699219 29.132812 12.097656 28.894531 12.824219 L 27.84375 16.003906 C 27.792969 16.160156 27.722656 16.304688 27.621094 16.433594 C 27.328125 16.8125 26.933594 16.980469 26.542969 16.980469 C 26.304688 16.980469 26.066406 16.917969 25.859375 16.800781 C 25.398438 16.546875 25.074219 16.039062 25.160156 15.402344 L 25.183594 15.238281 C 25.222656 14.964844 25.339844 14.714844 25.523438 14.507812 L 27.660156 12.113281 C 28.171875 11.542969 28.121094 10.664062 27.550781 10.152344 C 26.980469 9.640625 26.101562 9.691406 25.589844 10.261719 L 24.414062 11.582031 C 24.289062 11.722656 24.050781 11.632812 24.050781 11.441406 C 24.050781 11.390625 24.070312 11.339844 24.105469 11.304688 L 26.773438 8.316406 C 27.140625 7.902344 27.230469 7.332031 27.003906 6.824219 C 26.777344 6.320312 26.289062 6.003906 25.734375 6.003906 C 25.195312 6.003906 24.988281 6.140625 24.289062 6.917969 C 24.207031 7.007812 24.050781 6.949219 24.050781 6.828125 L 24.050781 5.46875 C 24.050781 4.582031 23.480469 3.917969 22.589844 3.914062 L 22.546875 3.90625 C 21.910156 3.867188 21.40625 4.222656 21.132812 4.691406 C 21 4.917969 20.925781 5.1875 20.925781 5.46875 L 20.925781 6.839844 C 20.925781 6.964844 20.773438 7.023438 20.691406 6.929688 L 20.277344 6.46875 C 19.9375 6.085938 19.421875 5.917969 18.890625 6.046875 C 18.828125 6.0625 18.765625 6.082031 18.707031 6.109375 C 17.789062 6.515625 17.597656 7.636719 18.207031 8.316406 L 20.871094 11.304688 C 20.90625 11.34375 20.925781 11.390625 20.925781 11.441406 C 20.925781 11.632812 20.691406 11.722656 20.5625 11.582031 L 19.386719 10.261719 C 19.140625 9.988281 18.800781 9.824219 18.429688 9.804688 C 18.058594 9.78125 17.703125 9.90625 17.425781 10.152344 C 16.855469 10.664062 16.804688 11.542969 17.316406 12.113281 L 19.546875 14.613281 C 19.65625 14.734375 19.746094 14.871094 19.808594 15.019531 C 19.988281 15.464844 19.933594 15.890625 19.742188 16.226562 C 19.621094 16.433594 19.449219 16.609375 19.242188 16.730469 C 18.792969 17.003906 18.191406 17.03125 17.683594 16.632812 L 17.550781 16.53125 C 17.335938 16.363281 17.175781 16.136719 17.089844 15.875 L 16.085938 12.824219 C 15.84375 12.097656 15.058594 11.699219 14.332031 11.941406 C 13.605469 12.179688 13.207031 12.964844 13.449219 13.695312 L 14 15.371094 C 14.058594 15.550781 13.863281 15.710938 13.699219 15.613281 C 13.65625 15.589844 13.621094 15.546875 13.605469 15.5 L 12.351562 11.699219 C 12.179688 11.171875 11.726562 10.808594 11.175781 10.75 C 10.625 10.695312 10.109375 10.957031 9.832031 11.4375 C 9.5625 11.90625 9.574219 12.152344 9.898438 13.148438 C 9.9375 13.265625 9.8125 13.367188 9.703125 13.308594 L 8.527344 12.628906 C 7.757812 12.183594 6.894531 12.347656 6.449219 13.117188 L 6.421875 13.152344 C 6.066406 13.679688 6.121094 14.296875 6.390625 14.765625 C 6.523438 14.996094 6.71875 15.195312 6.964844 15.335938 L 8.152344 16.019531 C 8.257812 16.082031 8.230469 16.246094 8.109375 16.269531 L 7.503906 16.394531 C 7.003906 16.5 6.601562 16.863281 6.445312 17.386719 C 6.425781 17.449219 6.414062 17.511719 6.40625 17.578125 C 6.300781 18.578125 7.175781 19.300781 8.070312 19.113281 L 11.988281 18.296875 C 12.039062 18.289062 12.09375 18.296875 12.136719 18.320312 C 12.300781 18.417969 12.261719 18.667969 12.074219 18.707031 L 10.347656 19.066406 C 9.984375 19.140625 9.671875 19.351562 9.46875 19.664062 C 9.265625 19.972656 9.195312 20.34375 9.269531 20.707031 C 9.425781 21.457031 10.164062 21.941406 10.914062 21.78125 L 14.191406 21.101562 C 14.351562 21.066406 14.515625 21.058594 14.675781 21.078125 C 15.148438 21.144531 15.492188 21.402344 15.6875 21.738281 C 15.804688 21.949219 15.871094 22.183594 15.875 22.421875 C 15.886719 22.949219 15.609375 23.484375 15.011719 23.722656 L 14.855469 23.789062 C 14.601562 23.890625 14.324219 23.914062 14.058594 23.859375 L 10.914062 23.203125 C 10.164062 23.046875 9.425781 23.53125 9.269531 24.28125 C 9.113281 25.03125 9.597656 25.765625 10.347656 25.921875 L 12.074219 26.28125 C 12.261719 26.320312 12.300781 26.570312 12.136719 26.667969 C 12.09375 26.691406 12.039062 26.699219 11.988281 26.691406 L 8.070312 25.875 C 7.527344 25.761719 6.988281 25.96875 6.664062 26.417969 C 6.339844 26.867188 6.308594 27.445312 6.585938 27.925781 C 6.839844 28.367188 7.050781 28.492188 7.925781 28.6875 C 8.109375 28.726562 8.144531 28.96875 7.984375 29.0625 L 6.964844 29.652344 C 6.195312 30.097656 5.90625 30.925781 6.351562 31.695312 L 6.367188 31.738281 C 6.648438 32.308594 7.210938 32.566406 7.75 32.566406 C 8.015625 32.566406 8.285156 32.5 8.53125 32.355469 L 9.5625 31.761719 C 9.722656 31.667969 9.914062 31.824219 9.855469 32.003906 L 9.71875 32.417969 C 9.558594 32.90625 9.671875 33.4375 10.046875 33.832031 C 10.09375 33.878906 10.140625 33.921875 10.195312 33.960938 C 11.007812 34.550781 12.070312 34.15625 12.355469 33.289062 L 13.609375 29.484375 C 13.625 29.4375 13.660156 29.398438 13.703125 29.371094 C 13.871094 29.277344 14.066406 29.433594 14.003906 29.617188 L 13.453125 31.292969 C 13.335938 31.644531 13.363281 32.019531 13.53125 32.351562 C 13.699219 32.683594 13.984375 32.929688 14.335938 33.046875 C 15.0625 33.285156 15.851562 32.886719 16.089844 32.160156 L 17.136719 28.980469 C 17.1875 28.828125 17.261719 28.679688 17.359375 28.550781 C 17.652344 28.171875 18.050781 28.007812 18.4375 28.007812 C 18.679688 28.007812 18.917969 28.070312 19.125 28.183594 L 19.121094 28.1875 C 19.582031 28.441406 19.90625 28.949219 19.816406 29.585938 L 19.796875 29.753906 C 19.757812 30.023438 19.640625 30.277344 19.457031 30.480469 L 17.316406 32.875 C 16.808594 33.449219 16.859375 34.328125 17.429688 34.835938 C 18 35.347656 18.878906 35.296875 19.390625 34.726562 L 20.566406 33.410156 C 20.691406 33.265625 20.925781 33.355469 20.925781 33.546875 C 20.925781 33.597656 20.910156 33.648438 20.875 33.6875 L 18.207031 36.671875 C 17.839844 37.085938 17.75 37.65625 17.976562 38.164062 C 18.203125 38.671875 18.691406 38.984375 19.242188 38.984375 C 19.777344 38.984375 19.988281 38.851562 20.671875 38.09375 C 20.761719 37.992188 20.925781 38.054688 20.925781 38.1875 L 20.925781 39.519531 C 20.925781 40.40625 21.5 41.074219 22.390625 41.074219 L 22.433594 41.082031 C 23.070312 41.125 23.574219 40.769531 23.84375 40.300781 C 23.976562 40.070312 24.054688 39.804688 24.054688 39.519531 L 24.054688 38.175781 C 24.054688 38.042969 24.21875 37.980469 24.308594 38.078125 L 24.703125 38.519531 C 25.042969 38.902344 25.558594 39.070312 26.089844 38.941406 C 26.152344 38.925781 26.214844 38.90625 26.273438 38.882812 C 27.191406 38.472656 27.382812 37.355469 26.773438 36.671875 L 24.054688 33.625 L 24.054688 33.003906 L 25.59375 34.726562 C 25.839844 35 26.179688 35.164062 26.550781 35.1875 C 26.921875 35.207031 27.277344 35.082031 27.554688 34.835938 C 28.125 34.324219 28.175781 33.445312 27.664062 32.875 L 25.433594 30.378906 C 25.324219 30.257812 25.234375 30.121094 25.171875 29.96875 C 24.992188 29.527344 25.046875 29.101562 25.238281 28.761719 C 25.359375 28.554688 25.53125 28.382812 25.738281 28.257812 C 26.1875 27.984375 26.789062 27.960938 27.296875 28.355469 L 27.429688 28.457031 C 27.644531 28.625 27.804688 28.855469 27.886719 29.113281 L 28.894531 32.164062 C 29.132812 32.890625 29.921875 33.289062 30.648438 33.050781 C 31.375 32.808594 31.769531 32.023438 31.53125 31.296875 L 30.980469 29.621094 C 30.917969 29.4375 31.113281 29.28125 31.28125 29.375 C 31.324219 29.402344 31.359375 29.441406 31.375 29.488281 L 32.628906 33.292969 C 32.800781 33.816406 33.25 34.179688 33.804688 34.238281 C 34.355469 34.292969 34.871094 34.03125 35.148438 33.550781 C 35.414062 33.089844 35.40625 32.839844 35.089844 31.867188 C 35.046875 31.738281 35.183594 31.628906 35.300781 31.695312 L 36.453125 32.363281 C 37.222656 32.804688 38.082031 32.640625 38.53125 31.871094 L 38.558594 31.835938 C 38.914062 31.304688 38.859375 30.691406 38.585938 30.222656 C 38.453125 29.992188 38.261719 29.792969 38.015625 29.652344 " fill-opacity="1" fill-rule="nonzero"/></g></svg>